<svg height="413pt" viewBox="0 0 413.24713 413" width="413pt" xmlns="http://www.w3.org/2000/svg"><path d="m167.253906 221.570312h-143.359375c-13.175781 0-23.894531 10.722657-23.894531 23.894532 0 13.175781 10.71875 23.894531 23.894531 23.894531h143.359375c13.171875 0 23.894532-10.71875 23.894532-23.894531 0-13.171875-10.722657-23.894532-23.894532-23.894532zm0 34.136719h-143.359375c-5.648437 0-10.242187-4.59375-10.242187-10.242187 0-5.648438 4.59375-10.238282 10.242187-10.238282h143.359375c5.648438 0 10.238282 4.589844 10.238282 10.238282 0 5.648437-4.589844 10.242187-10.238282 10.242187zm0 0"/><path d="m167.253906 364.933594h-143.359375c-13.175781 0-23.894531 10.71875-23.894531 23.890625 0 13.175781 10.71875 23.894531 23.894531 23.894531h143.359375c13.171875 0 23.894532-10.71875 23.894532-23.894531 0-13.171875-10.722657-23.890625-23.894532-23.890625zm0 34.132812h-143.359375c-5.648437 0-10.242187-4.59375-10.242187-10.242187 0-5.644531 4.59375-10.238281 10.242187-10.238281h143.359375c5.648438 0 10.238282 4.59375 10.238282 10.238281 0 5.648437-4.589844 10.242187-10.238282 10.242187zm0 0"/><path d="m187.734375 180.613281c35.757813 0 64.851563-29.09375 64.851563-64.855469 0-35.757812-29.09375-64.851562-64.851563-64.851562-35.761719 0-64.855469 29.09375-64.855469 64.851562 0 35.761719 29.09375 64.855469 64.855469 64.855469zm0-116.054687c28.230469 0 51.199219 22.964844 51.199219 51.199218 0 28.234376-22.96875 51.199219-51.199219 51.199219-28.234375 0-51.199219-22.964843-51.199219-51.199219 0-28.234374 22.964844-51.199218 51.199219-51.199218zm0 0"/><path d="m344.746094 276.183594c-35.757813 0-64.851563 29.09375-64.851563 64.855468 0 35.757813 29.09375 64.851563 64.851563 64.851563 35.761718 0 64.855468-29.09375 64.855468-64.851563 0-35.761718-29.09375-64.855468-64.855468-64.855468zm0 116.054687c-28.234375 0-51.199219-22.964843-51.199219-51.199219 0-28.234374 22.964844-51.199218 51.199219-51.199218s51.199218 22.964844 51.199218 51.199218c0 28.234376-22.964843 51.199219-51.199218 51.199219zm0 0"/><path d="m395.972656 119.265625-4.71875 11.535156c-4.300781 10.503907-5.660156 22-3.941406 33.226563l2.59375 16.898437c.519531 3.378907 3.425781 5.792969 6.738281 5.792969.339844 0 .695313-.027344 1.042969-.078125 3.726562-.574219 6.285156-4.054687 5.710938-7.78125l-2.59375-16.898437c-1.34375-8.789063-.277344-17.773438 3.089843-25.988282l4.71875-11.535156c8.136719-19.898438 5.261719-42.125-6.3125-59.128906 1.378907-2.839844 2.296875-4.792969 2.671875-5.71875 7.839844-19.160156-1.375-41.132813-20.53125-48.972656-18.550781-7.566407-39.695312.796874-48.15625 18.699218l-8.628906-.34375c-18.449219-.734375-35.527344-10.375-45.6875-25.789062-2.074219-3.1328128-6.296875-4.003906-9.460938-1.9375-3.148437 2.070312-4.015624 6.304687-1.941406 9.457031 12.578125 19.074219 33.714844 31.007813 56.539063 31.90625l4.308593.171875c-20.894531 62.15625-109.898437 341.273438-114.046874 354.269531-1.074219 3.378907.617187 7.027344 3.890624 8.378907.855469.355468 1.742188.523437 2.613282.523437 2.480468 0 4.863281-1.363281 6.066406-3.703125 5.972656-11.570312 128.546875-249.261719 165.058594-322.1875 5.578125 12.066406 6.273437 26.257812.976562 39.203125zm-140.738281 204.085937c39.164063-122.503906 88.820313-277.105468 92.878906-287.027343 3.78125-9.238281 12.726563-14.84375 22.148438-14.84375 3.007812 0 6.058593.570312 9.003906 1.777343 5.914063 2.414063 10.527344 6.988282 12.996094 12.875 2.414062 5.765626 2.476562 12.109376.203125 17.917969-1.148438-1.03125-2.347656-2.023437-3.582032-2.976562.074219-2.902344-.445312-5.816407-1.601562-8.574219-2.148438-5.121094-6.160156-9.09375-11.300781-11.199219-5.140625-2.109375-10.792969-2.074219-15.90625.070313-5.125 2.148437-9.101563 6.152344-11.207031 11.292968-4.339844 10.613282.761718 22.773438 11.367187 27.121094 2.574219 1.046875 5.226563 1.546875 7.847656 1.546875 5.867188 0 11.519531-2.515625 15.46875-6.890625.933594.847656 1.824219 1.726563 2.679688 2.640625-19.5 39.257813-80.789063 158.71875-130.996094 256.269531zm119.480469-270.113281c-.722656 1.765625-2.089844 3.148438-3.847656 3.886719-1.746094.734375-3.6875.75-5.460938.019531-3.640625-1.488281-5.390625-5.664062-3.898438-9.304687.71875-1.769532 2.085938-3.140625 3.839844-3.878906.894532-.375 1.828125-.5625 2.761719-.5625.910156 0 1.832031.179687 2.699219.539062 1.765625.722656 3.144531 2.089844 3.886718 3.847656.730469 1.753906.738282 3.695313.019532 5.453125zm0 0"/><path d="m354.988281 320.558594c0 5.65625-4.585937 10.238281-10.242187 10.238281s-10.238282-4.582031-10.238282-10.238281 4.582032-10.238282 10.238282-10.238282 10.242187 4.582032 10.242187 10.238282zm0 0"/><path d="m354.988281 361.519531c0 5.65625-4.585937 10.238281-10.242187 10.238281s-10.238282-4.582031-10.238282-10.238281 4.582032-10.242187 10.238282-10.242187 10.242187 4.585937 10.242187 10.242187zm0 0"/><path d="m334.507812 341.039062c0 5.65625-4.585937 10.238282-10.242187 10.238282s-10.238281-4.582032-10.238281-10.238282 4.582031-10.242187 10.238281-10.242187 10.242187 4.585937 10.242187 10.242187zm0 0"/><path d="m375.464844 341.039062c0 5.65625-4.582032 10.238282-10.238282 10.238282s-10.238281-4.582032-10.238281-10.238282 4.582031-10.242187 10.238281-10.242187 10.238282 4.585937 10.238282 10.242187zm0 0"/><path d="m197.972656 95.277344c0 5.65625-4.582031 10.242187-10.238281 10.242187s-10.242187-4.585937-10.242187-10.242187c0-5.652344 4.585937-10.238282 10.242187-10.238282s10.238281 4.585938 10.238281 10.238282zm0 0"/><path d="m197.972656 136.238281c0 5.65625-4.582031 10.238281-10.238281 10.238281s-10.242187-4.582031-10.242187-10.238281 4.585937-10.238281 10.242187-10.238281 10.238281 4.582031 10.238281 10.238281zm0 0"/><path d="m177.492188 115.757812c0 5.65625-4.582032 10.242188-10.238282 10.242188s-10.242187-4.585938-10.242187-10.242188 4.585937-10.238281 10.242187-10.238281 10.238282 4.582031 10.238282 10.238281zm0 0"/><path d="m218.453125 115.757812c0 5.65625-4.585937 10.242188-10.238281 10.242188-5.65625 0-10.242188-4.585938-10.242188-10.242188s4.585938-10.238281 10.242188-10.238281c5.652344 0 10.238281 4.582031 10.238281 10.238281zm0 0"/><path d="m102.398438 283.011719h-72.164063c-3.773437 0-6.828125 3.054687-6.828125 6.828125 0 3.773437 3.054688 6.824218 6.828125 6.824218h72.164063c3.773437 0 6.828124-3.050781 6.828124-6.824218 0-3.773438-3.054687-6.828125-6.828124-6.828125zm0 0"/><path d="m61.441406 317.144531c0 3.773438 3.050782 6.828125 6.824219 6.828125h93.621094c3.773437 0 6.824219-3.054687 6.824219-6.828125 0-3.773437-3.050782-6.824219-6.824219-6.824219h-93.621094c-3.773437 0-6.824219 3.050782-6.824219 6.824219zm0 0"/><path d="m20.480469 344.453125c0 3.773437 3.054687 6.824219 6.828125 6.824219h40.957031c3.773437 0 6.828125-3.050782 6.828125-6.824219s-3.054688-6.828125-6.828125-6.828125h-40.957031c-3.773438 0-6.828125 3.054688-6.828125 6.828125zm0 0"/></svg>